<?xml version="1.0" encoding="UTF-8"?>
<svg width="600" height="400" viewBox="0 0 600 400" fill="none" xmlns="http://www.w3.org/2000/svg">
  <g clip-path="url(#clip0_1_2)">
    <path d="M489.927 314.424C489.927 314.424 493.477 321.524 490.827 328.624C488.177 335.724 482.827 342.824 475.927 347.324C469.027 351.824 460.577 353.724 452.127 353.724C443.677 353.724 435.227 351.824 428.327 347.324C421.427 342.824 416.077 335.724 413.427 328.624C410.777 321.524 410.777 314.424 413.427 307.324C416.077 300.224 421.427 293.124 428.327 288.624C435.227 284.124 443.677 282.224 452.127 282.224C460.577 282.224 469.027 284.124 475.927 288.624C482.827 293.124 488.177 300.224 490.827 307.324C493.477 314.424 489.927 314.424 489.927 314.424Z" fill="#F0F0F0"/>
    <path d="M452.127 353.724C443.677 353.724 435.227 351.824 428.327 347.324C421.427 342.824 416.077 335.724 413.427 328.624C410.777 321.524 410.777 314.424 413.427 307.324C416.077 300.224 421.427 293.124 428.327 288.624C435.227 284.124 443.677 282.224 452.127 282.224" stroke="#3F3D56" stroke-width="2" stroke-miterlimit="10"/>
    <path d="M489.927 314.424C489.927 314.424 493.477 321.524 490.827 328.624C488.177 335.724 482.827 342.824 475.927 347.324C469.027 351.824 460.577 353.724 452.127 353.724" stroke="#3F3D56" stroke-width="2" stroke-miterlimit="10"/>
    <path d="M452.127 353.724V282.224" stroke="#3F3D56" stroke-width="2" stroke-miterlimit="10"/>
    <path d="M452.127 353.724L489.927 314.424" stroke="#3F3D56" stroke-width="2" stroke-miterlimit="10"/>
    <path d="M452.127 282.224L489.927 314.424" stroke="#3F3D56" stroke-width="2" stroke-miterlimit="10"/>
    <path d="M452.127 317.974C455.441 317.974 458.127 315.288 458.127 311.974C458.127 308.66 455.441 305.974 452.127 305.974C448.813 305.974 446.127 308.66 446.127 311.974C446.127 315.288 448.813 317.974 452.127 317.974Z" fill="#1677FF"/>
    <path d="M452.127 317.974C455.441 317.974 458.127 315.288 458.127 311.974C458.127 308.66 455.441 305.974 452.127 305.974C448.813 305.974 446.127 308.66 446.127 311.974C446.127 315.288 448.813 317.974 452.127 317.974Z" stroke="#3F3D56" stroke-width="2" stroke-miterlimit="10"/>
    <path d="M489.927 320.424C493.241 320.424 495.927 317.738 495.927 314.424C495.927 311.11 493.241 308.424 489.927 308.424C486.613 308.424 483.927 311.11 483.927 314.424C483.927 317.738 486.613 320.424 489.927 320.424Z" fill="#1677FF"/>
    <path d="M489.927 320.424C493.241 320.424 495.927 317.738 495.927 314.424C495.927 311.11 493.241 308.424 489.927 308.424C486.613 308.424 483.927 311.11 483.927 314.424C483.927 317.738 486.613 320.424 489.927 320.424Z" stroke="#3F3D56" stroke-width="2" stroke-miterlimit="10"/>
    <path d="M452.127 288.224C455.441 288.224 458.127 285.538 458.127 282.224C458.127 278.91 455.441 276.224 452.127 276.224C448.813 276.224 446.127 278.91 446.127 282.224C446.127 285.538 448.813 288.224 452.127 288.224Z" fill="#1677FF"/>
    <path d="M452.127 288.224C455.441 288.224 458.127 285.538 458.127 282.224C458.127 278.91 455.441 276.224 452.127 276.224C448.813 276.224 446.127 278.91 446.127 282.224C446.127 285.538 448.813 288.224 452.127 288.224Z" stroke="#3F3D56" stroke-width="2" stroke-miterlimit="10"/>
    <path d="M452.127 359.724C455.441 359.724 458.127 357.038 458.127 353.724C458.127 350.41 455.441 347.724 452.127 347.724C448.813 347.724 446.127 350.41 446.127 353.724C446.127 357.038 448.813 359.724 452.127 359.724Z" fill="#1677FF"/>
    <path d="M452.127 359.724C455.441 359.724 458.127 357.038 458.127 353.724C458.127 350.41 455.441 347.724 452.127 347.724C448.813 347.724 446.127 350.41 446.127 353.724C446.127 357.038 448.813 359.724 452.127 359.724Z" stroke="#3F3D56" stroke-width="2" stroke-miterlimit="10"/>
    <path d="M183.927 314.424C183.927 314.424 187.477 321.524 184.827 328.624C182.177 335.724 176.827 342.824 169.927 347.324C163.027 351.824 154.577 353.724 146.127 353.724C137.677 353.724 129.227 351.824 122.327 347.324C115.427 342.824 110.077 335.724 107.427 328.624C104.777 321.524 104.777 314.424 107.427 307.324C110.077 300.224 115.427 293.124 122.327 288.624C129.227 284.124 137.677 282.224 146.127 282.224C154.577 282.224 163.027 284.124 169.927 288.624C176.827 293.124 182.177 300.224 184.827 307.324C187.477 314.424 183.927 314.424 183.927 314.424Z" fill="#F0F0F0"/>
    <path d="M146.127 353.724C137.677 353.724 129.227 351.824 122.327 347.324C115.427 342.824 110.077 335.724 107.427 328.624C104.777 321.524 104.777 314.424 107.427 307.324C110.077 300.224 115.427 293.124 122.327 288.624C129.227 284.124 137.677 282.224 146.127 282.224" stroke="#3F3D56" stroke-width="2" stroke-miterlimit="10"/>
    <path d="M183.927 314.424C183.927 314.424 187.477 321.524 184.827 328.624C182.177 335.724 176.827 342.824 169.927 347.324C163.027 351.824 154.577 353.724 146.127 353.724" stroke="#3F3D56" stroke-width="2" stroke-miterlimit="10"/>
    <path d="M146.127 353.724V282.224" stroke="#3F3D56" stroke-width="2" stroke-miterlimit="10"/>
    <path d="M146.127 353.724L183.927 314.424" stroke="#3F3D56" stroke-width="2" stroke-miterlimit="10"/>
    <path d="M146.127 282.224L183.927 314.424" stroke="#3F3D56" stroke-width="2" stroke-miterlimit="10"/>
    <path d="M146.127 317.974C149.441 317.974 152.127 315.288 152.127 311.974C152.127 308.66 149.441 305.974 146.127 305.974C142.813 305.974 140.127 308.66 140.127 311.974C140.127 315.288 142.813 317.974 146.127 317.974Z" fill="#1677FF"/>
    <path d="M146.127 317.974C149.441 317.974 152.127 315.288 152.127 311.974C152.127 308.66 149.441 305.974 146.127 305.974C142.813 305.974 140.127 308.66 140.127 311.974C140.127 315.288 142.813 317.974 146.127 317.974Z" stroke="#3F3D56" stroke-width="2" stroke-miterlimit="10"/>
    <path d="M183.927 320.424C187.241 320.424 189.927 317.738 189.927 314.424C189.927 311.11 187.241 308.424 183.927 308.424C180.613 308.424 177.927 311.11 177.927 314.424C177.927 317.738 180.613 320.424 183.927 320.424Z" fill="#1677FF"/>
    <path d="M183.927 320.424C187.241 320.424 189.927 317.738 189.927 314.424C189.927 311.11 187.241 308.424 183.927 308.424C180.613 308.424 177.927 311.11 177.927 314.424C177.927 317.738 180.613 320.424 183.927 320.424Z" stroke="#3F3D56" stroke-width="2" stroke-miterlimit="10"/>
    <path d="M146.127 288.224C149.441 288.224 152.127 285.538 152.127 282.224C152.127 278.91 149.441 276.224 146.127 276.224C142.813 276.224 140.127 278.91 140.127 282.224C140.127 285.538 142.813 288.224 146.127 288.224Z" fill="#1677FF"/>
    <path d="M146.127 288.224C149.441 288.224 152.127 285.538 152.127 282.224C152.127 278.91 149.441 276.224 146.127 276.224C142.813 276.224 140.127 278.91 140.127 282.224C140.127 285.538 142.813 288.224 146.127 288.224Z" stroke="#3F3D56" stroke-width="2" stroke-miterlimit="10"/>
    <path d="M146.127 359.724C149.441 359.724 152.127 357.038 152.127 353.724C152.127 350.41 149.441 347.724 146.127 347.724C142.813 347.724 140.127 350.41 140.127 353.724C140.127 357.038 142.813 359.724 146.127 359.724Z" fill="#1677FF"/>
    <path d="M146.127 359.724C149.441 359.724 152.127 357.038 152.127 353.724C152.127 350.41 149.441 347.724 146.127 347.724C142.813 347.724 140.127 350.41 140.127 353.724C140.127 357.038 142.813 359.724 146.127 359.724Z" stroke="#3F3D56" stroke-width="2" stroke-miterlimit="10"/>
    <path d="M336.927 314.424C336.927 314.424 340.477 321.524 337.827 328.624C335.177 335.724 329.827 342.824 322.927 347.324C316.027 351.824 307.577 353.724 299.127 353.724C290.677 353.724 282.227 351.824 275.327 347.324C268.427 342.824 263.077 335.724 260.427 328.624C257.777 321.524 257.777 314.424 260.427 307.324C263.077 300.224 268.427 293.124 275.327 288.624C282.227 284.124 290.677 282.224 299.127 282.224C307.577 282.224 316.027 284.124 322.927 288.624C329.827 293.124 335.177 300.224 337.827 307.324C340.477 314.424 336.927 314.424 336.927 314.424Z" fill="#F0F0F0"/>
    <path d="M299.127 353.724C290.677 353.724 282.227 351.824 275.327 347.324C268.427 342.824 263.077 335.724 260.427 328.624C257.777 321.524 257.777 314.424 260.427 307.324C263.077 300.224 268.427 293.124 275.327 288.624C282.227 284.124 290.677 282.224 299.127 282.224" stroke="#3F3D56" stroke-width="2" stroke-miterlimit="10"/>
    <path d="M336.927 314.424C336.927 314.424 340.477 321.524 337.827 328.624C335.177 335.724 329.827 342.824 322.927 347.324C316.027 351.824 307.577 353.724 299.127 353.724" stroke="#3F3D56" stroke-width="2" stroke-miterlimit="10"/>
    <path d="M299.127 353.724V282.224" stroke="#3F3D56" stroke-width="2" stroke-miterlimit="10"/>
    <path d="M299.127 353.724L336.927 314.424" stroke="#3F3D56" stroke-width="2" stroke-miterlimit="10"/>
    <path d="M299.127 282.224L336.927 314.424" stroke="#3F3D56" stroke-width="2" stroke-miterlimit="10"/>
    <path d="M299.127 317.974C302.441 317.974 305.127 315.288 305.127 311.974C305.127 308.66 302.441 305.974 299.127 305.974C295.813 305.974 293.127 308.66 293.127 311.974C293.127 315.288 295.813 317.974 299.127 317.974Z" fill="#1677FF"/>
    <path d="M299.127 317.974C302.441 317.974 305.127 315.288 305.127 311.974C305.127 308.66 302.441 305.974 299.127 305.974C295.813 305.974 293.127 308.66 293.127 311.974C293.127 315.288 295.813 317.974 299.127 317.974Z" stroke="#3F3D56" stroke-width="2" stroke-miterlimit="10"/>
    <path d="M336.927 320.424C340.241 320.424 342.927 317.738 342.927 314.424C342.927 311.11 340.241 308.424 336.927 308.424C333.613 308.424 330.927 311.11 330.927 314.424C330.927 317.738 333.613 320.424 336.927 320.424Z" fill="#1677FF"/>
    <path d="M336.927 320.424C340.241 320.424 342.927 317.738 342.927 314.424C342.927 311.11 340.241 308.424 336.927 308.424C333.613 308.424 330.927 311.11 330.927 314.424C330.927 317.738 333.613 320.424 336.927 320.424Z" stroke="#3F3D56" stroke-width="2" stroke-miterlimit="10"/>
    <path d="M299.127 288.224C302.441 288.224 305.127 285.538 305.127 282.224C305.127 278.91 302.441 276.224 299.127 276.224C295.813 276.224 293.127 278.91 293.127 282.224C293.127 285.538 295.813 288.224 299.127 288.224Z" fill="#1677FF"/>
    <path d="M299.127 288.224C302.441 288.224 305.127 285.538 305.127 282.224C305.127 278.91 302.441 276.224 299.127 276.224C295.813 276.224 293.127 278.91 293.127 282.224C293.127 285.538 295.813 288.224 299.127 288.224Z" stroke="#3F3D56" stroke-width="2" stroke-miterlimit="10"/>
    <path d="M299.127 359.724C302.441 359.724 305.127 357.038 305.127 353.724C305.127 350.41 302.441 347.724 299.127 347.724C295.813 347.724 293.127 350.41 293.127 353.724C293.127 357.038 295.813 359.724 299.127 359.724Z" fill="#1677FF"/>
    <path d="M299.127 359.724C302.441 359.724 305.127 357.038 305.127 353.724C305.127 350.41 302.441 347.724 299.127 347.724C295.813 347.724 293.127 350.41 293.127 353.724C293.127 357.038 295.813 359.724 299.127 359.724Z" stroke="#3F3D56" stroke-width="2" stroke-miterlimit="10"/>
    <path d="M299.127 229.724H146.127V247.724H299.127V229.724Z" fill="#1677FF"/>
    <path d="M299.127 229.724H146.127V247.724H299.127V229.724Z" stroke="#3F3D56" stroke-width="2" stroke-miterlimit="10"/>
    <path d="M452.127 229.724H299.127V247.724H452.127V229.724Z" fill="#1677FF"/>
    <path d="M452.127 229.724H299.127V247.724H452.127V229.724Z" stroke="#3F3D56" stroke-width="2" stroke-miterlimit="10"/>
    <path d="M299.127 194.724H146.127V212.724H299.127V194.724Z" fill="#1677FF"/>
    <path d="M299.127 194.724H146.127V212.724H299.127V194.724Z" stroke="#3F3D56" stroke-width="2" stroke-miterlimit="10"/>
    <path d="M452.127 194.724H299.127V212.724H452.127V194.724Z" fill="#1677FF"/>
    <path d="M452.127 194.724H299.127V212.724H452.127V194.724Z" stroke="#3F3D56" stroke-width="2" stroke-miterlimit="10"/>
    <path d="M299.127 159.724H146.127V177.724H299.127V159.724Z" fill="#1677FF"/>
    <path d="M299.127 159.724H146.127V177.724H299.127V159.724Z" stroke="#3F3D56" stroke-width="2" stroke-miterlimit="10"/>
    <path d="M452.127 159.724H299.127V177.724H452.127V159.724Z" fill="#1677FF"/>
    <path d="M452.127 159.724H299.127V177.724H452.127V159.724Z" stroke="#3F3D56" stroke-width="2" stroke-miterlimit="10"/>
    <path d="M299.127 124.724H146.127V142.724H299.127V124.724Z" fill="#1677FF"/>
    <path d="M299.127 124.724H146.127V142.724H299.127V124.724Z" stroke="#3F3D56" stroke-width="2" stroke-miterlimit="10"/>
    <path d="M452.127 124.724H299.127V142.724H452.127V124.724Z" fill="#1677FF"/>
    <path d="M452.127 124.724H299.127V142.724H452.127V124.724Z" stroke="#3F3D56" stroke-width="2" stroke-miterlimit="10"/>
    <path d="M299.127 89.724H146.127V107.724H299.127V89.724Z" fill="#1677FF"/>
    <path d="M299.127 89.724H146.127V107.724H299.127V89.724Z" stroke="#3F3D56" stroke-width="2" stroke-miterlimit="10"/>
    <path d="M452.127 89.724H299.127V107.724H452.127V89.724Z" fill="#1677FF"/>
    <path d="M452.127 89.724H299.127V107.724H452.127V89.724Z" stroke="#3F3D56" stroke-width="2" stroke-miterlimit="10"/>
    <path d="M299.127 54.724H146.127V72.724H299.127V54.724Z" fill="#1677FF"/>
    <path d="M299.127 54.724H146.127V72.724H299.127V54.724Z" stroke="#3F3D56" stroke-width="2" stroke-miterlimit="10"/>
    <path d="M452.127 54.724H299.127V72.724H452.127V54.724Z" fill="#1677FF"/>
    <path d="M452.127 54.724H299.127V72.724H452.127V54.724Z" stroke="#3F3D56" stroke-width="2" stroke-miterlimit="10"/>
    <path d="M146.127 54.724V247.724" stroke="#3F3D56" stroke-width="2" stroke-miterlimit="10"/>
    <path d="M299.127 54.724V247.724" stroke="#3F3D56" stroke-width="2" stroke-miterlimit="10"/>
    <path d="M452.127 54.724V247.724" stroke="#3F3D56" stroke-width="2" stroke-miterlimit="10"/>
  </g>
  <defs>
    <clipPath id="clip0_1_2">
      <rect width="600" height="400" fill="white"/>
    </clipPath>
  </defs>
</svg>