<?xml version="1.0" encoding="UTF-8"?>
<svg width="400" height="300" viewBox="0 0 400 300" fill="none" xmlns="http://www.w3.org/2000/svg">
  <!-- Background -->
  <rect width="400" height="300" fill="#f0f9ff"/>
  
  <!-- Email Icon -->
  <g transform="translate(150, 80)">
    <!-- Email Body -->
    <rect x="0" y="20" width="100" height="70" rx="8" fill="#1677ff" stroke="#0958d9" stroke-width="2"/>
    
    <!-- Email Flap -->
    <path d="M0 20 L50 50 L100 20" stroke="#0958d9" stroke-width="2" fill="none"/>
    
    <!-- Email Lines -->
    <rect x="15" y="35" width="70" height="3" rx="1.5" fill="rgba(255,255,255,0.8)"/>
    <rect x="15" y="45" width="50" height="3" rx="1.5" fill="rgba(255,255,255,0.6)"/>
    <rect x="15" y="55" width="60" height="3" rx="1.5" fill="rgba(255,255,255,0.6)"/>
    <rect x="15" y="65" width="40" height="3" rx="1.5" fill="rgba(255,255,255,0.6)"/>
  </g>
  
  <!-- Notification Dots -->
  <circle cx="120" cy="90" r="4" fill="#ff4d4f">
    <animate attributeName="opacity" values="1;0.3;1" dur="2s" repeatCount="indefinite"/>
  </circle>
  <circle cx="280" cy="110" r="3" fill="#52c41a">
    <animate attributeName="opacity" values="0.3;1;0.3" dur="2s" repeatCount="indefinite"/>
  </circle>
  <circle cx="320" cy="95" r="3.5" fill="#faad14">
    <animate attributeName="opacity" values="1;0.3;1" dur="1.5s" repeatCount="indefinite"/>
  </circle>
  
  <!-- Floating Elements -->
  <g transform="translate(80, 160)">
    <!-- Job Card 1 -->
    <rect x="0" y="0" width="80" height="50" rx="6" fill="white" stroke="#e6f4ff" stroke-width="1">
      <animate attributeName="y" values="0;-5;0" dur="3s" repeatCount="indefinite"/>
    </rect>
    <rect x="8" y="8" width="12" height="12" rx="2" fill="#1677ff"/>
    <rect x="25" y="8" width="40" height="4" rx="2" fill="#f0f0f0"/>
    <rect x="25" y="16" width="30" height="3" rx="1.5" fill="#f0f0f0"/>
    <rect x="8" y="28" width="20" height="3" rx="1.5" fill="#52c41a"/>
    <rect x="35" y="28" width="25" height="3" rx="1.5" fill="#faad14"/>
  </g>
  
  <g transform="translate(240, 170)">
    <!-- Job Card 2 -->
    <rect x="0" y="0" width="80" height="50" rx="6" fill="white" stroke="#e6f4ff" stroke-width="1">
      <animate attributeName="y" values="0;-3;0" dur="2.5s" repeatCount="indefinite"/>
    </rect>
    <rect x="8" y="8" width="12" height="12" rx="2" fill="#722ed1"/>
    <rect x="25" y="8" width="35" height="4" rx="2" fill="#f0f0f0"/>
    <rect x="25" y="16" width="25" height="3" rx="1.5" fill="#f0f0f0"/>
    <rect x="8" y="28" width="18" height="3" rx="1.5" fill="#1677ff"/>
    <rect x="32" y="28" width="28" height="3" rx="1.5" fill="#ff4d4f"/>
  </g>
  
  <!-- Connecting Lines -->
  <path d="M200 120 Q220 140 180 180" stroke="#1677ff" stroke-width="2" fill="none" opacity="0.3">
    <animate attributeName="stroke-dasharray" values="0,100;50,50;100,0" dur="3s" repeatCount="indefinite"/>
  </path>
  <path d="M200 120 Q180 140 280 180" stroke="#1677ff" stroke-width="2" fill="none" opacity="0.3">
    <animate attributeName="stroke-dasharray" values="0,100;50,50;100,0" dur="3s" begin="1s" repeatCount="indefinite"/>
  </path>
  
  <!-- Decorative Elements -->
  <circle cx="50" cy="50" r="2" fill="#1677ff" opacity="0.6">
    <animate attributeName="r" values="2;4;2" dur="4s" repeatCount="indefinite"/>
  </circle>
  <circle cx="350" cy="60" r="3" fill="#52c41a" opacity="0.6">
    <animate attributeName="r" values="3;5;3" dur="3s" repeatCount="indefinite"/>
  </circle>
  <circle cx="70" cy="250" r="2.5" fill="#faad14" opacity="0.6">
    <animate attributeName="r" values="2.5;4.5;2.5" dur="3.5s" repeatCount="indefinite"/>
  </circle>
  <circle cx="330" cy="240" r="2" fill="#722ed1" opacity="0.6">
    <animate attributeName="r" values="2;4;2" dur="2.8s" repeatCount="indefinite"/>
  </circle>
</svg>